<mxfile host="app.diagrams.net" agent="Mozilla/5.0 (Windows NT 10.0; Win64; x64) AppleWebKit/537.36 (KHTML, like Gecko) Chrome/127.0.0.0 Safari/537.36" version="24.7.7">
  <diagram name="PÃ¡gina-1" id="vmeJsrMYOtkTEbfaRf50">
    <mxGraphModel dx="1434" dy="746" grid="0" gridSize="10" guides="1" tooltips="1" connect="1" arrows="1" fold="1" page="1" pageScale="1" pageWidth="827" pageHeight="1169" math="0" shadow="0">
      <root>
        <mxCell id="0" />
        <mxCell id="1" parent="0" />
        <mxCell id="z82gJRCpisf7ENNNL1Ij-1" value="" style="rounded=1;whiteSpace=wrap;html=1;fillColor=#dae8fc;strokeColor=#6c8ebf;" vertex="1" parent="1">
          <mxGeometry x="30" y="130" width="90" height="40" as="geometry" />
        </mxCell>
        <mxCell id="z82gJRCpisf7ENNNL1Ij-2" value="document" style="text;html=1;align=center;verticalAlign=middle;whiteSpace=wrap;rounded=0;fillColor=none;strokeColor=none;" vertex="1" parent="1">
          <mxGeometry x="45" y="135" width="60" height="30" as="geometry" />
        </mxCell>
        <mxCell id="z82gJRCpisf7ENNNL1Ij-3" value="" style="rounded=1;whiteSpace=wrap;html=1;fillColor=#dae8fc;strokeColor=#6c8ebf;" vertex="1" parent="1">
          <mxGeometry x="120" y="200" width="90" height="40" as="geometry" />
        </mxCell>
        <mxCell id="z82gJRCpisf7ENNNL1Ij-4" value="" style="rounded=1;whiteSpace=wrap;html=1;fillColor=#ffe6cc;strokeColor=#d79b00;" vertex="1" parent="1">
          <mxGeometry x="194" y="400" width="90" height="40" as="geometry" />
        </mxCell>
        <mxCell id="z82gJRCpisf7ENNNL1Ij-5" value="html" style="text;html=1;align=center;verticalAlign=middle;whiteSpace=wrap;rounded=0;" vertex="1" parent="1">
          <mxGeometry x="135" y="205" width="60" height="30" as="geometry" />
        </mxCell>
        <mxCell id="z82gJRCpisf7ENNNL1Ij-6" value="body" style="text;html=1;align=center;verticalAlign=middle;whiteSpace=wrap;rounded=0;" vertex="1" parent="1">
          <mxGeometry x="209" y="405" width="60" height="25" as="geometry" />
        </mxCell>
        <mxCell id="z82gJRCpisf7ENNNL1Ij-7" value="" style="rounded=1;whiteSpace=wrap;html=1;fillColor=#ffe6cc;strokeColor=#d79b00;" vertex="1" parent="1">
          <mxGeometry x="194" y="260" width="90" height="40" as="geometry" />
        </mxCell>
        <mxCell id="z82gJRCpisf7ENNNL1Ij-8" value="head" style="text;html=1;align=center;verticalAlign=middle;whiteSpace=wrap;rounded=0;" vertex="1" parent="1">
          <mxGeometry x="209" y="265" width="60" height="30" as="geometry" />
        </mxCell>
        <mxCell id="z82gJRCpisf7ENNNL1Ij-10" value="" style="rounded=1;whiteSpace=wrap;html=1;fillColor=#e1d5e7;strokeColor=#9673a6;" vertex="1" parent="1">
          <mxGeometry x="260" y="320" width="90" height="40" as="geometry" />
        </mxCell>
        <mxCell id="z82gJRCpisf7ENNNL1Ij-11" value="title" style="text;html=1;align=center;verticalAlign=middle;whiteSpace=wrap;rounded=0;" vertex="1" parent="1">
          <mxGeometry x="275" y="325" width="60" height="30" as="geometry" />
        </mxCell>
        <mxCell id="z82gJRCpisf7ENNNL1Ij-12" value="" style="rounded=1;whiteSpace=wrap;html=1;fillColor=#e1d5e7;strokeColor=#9673a6;" vertex="1" parent="1">
          <mxGeometry x="260" y="460" width="90" height="40" as="geometry" />
        </mxCell>
        <mxCell id="z82gJRCpisf7ENNNL1Ij-13" value="section" style="text;html=1;align=center;verticalAlign=middle;whiteSpace=wrap;rounded=0;" vertex="1" parent="1">
          <mxGeometry x="270" y="465" width="65" height="30" as="geometry" />
        </mxCell>
        <mxCell id="z82gJRCpisf7ENNNL1Ij-17" value="" style="rounded=1;whiteSpace=wrap;html=1;fillColor=#cce5ff;strokeColor=#36393d;" vertex="1" parent="1">
          <mxGeometry x="350" y="520" width="90" height="40" as="geometry" />
        </mxCell>
        <mxCell id="z82gJRCpisf7ENNNL1Ij-18" value="h2" style="text;html=1;align=center;verticalAlign=middle;whiteSpace=wrap;rounded=0;" vertex="1" parent="1">
          <mxGeometry x="365" y="525" width="60" height="30" as="geometry" />
        </mxCell>
        <mxCell id="z82gJRCpisf7ENNNL1Ij-21" value="" style="rounded=1;whiteSpace=wrap;html=1;fillColor=#cce5ff;strokeColor=#36393d;" vertex="1" parent="1">
          <mxGeometry x="350" y="580" width="90" height="40" as="geometry" />
        </mxCell>
        <mxCell id="z82gJRCpisf7ENNNL1Ij-22" value="p" style="text;html=1;align=center;verticalAlign=middle;whiteSpace=wrap;rounded=0;" vertex="1" parent="1">
          <mxGeometry x="365" y="585" width="60" height="30" as="geometry" />
        </mxCell>
        <mxCell id="z82gJRCpisf7ENNNL1Ij-26" value="" style="rounded=1;whiteSpace=wrap;html=1;fillColor=#cce5ff;strokeColor=#36393d;" vertex="1" parent="1">
          <mxGeometry x="350" y="640" width="90" height="40" as="geometry" />
        </mxCell>
        <mxCell id="z82gJRCpisf7ENNNL1Ij-27" value="p" style="text;html=1;align=center;verticalAlign=middle;whiteSpace=wrap;rounded=0;" vertex="1" parent="1">
          <mxGeometry x="365" y="645" width="60" height="30" as="geometry" />
        </mxCell>
        <mxCell id="z82gJRCpisf7ENNNL1Ij-28" value="" style="endArrow=none;html=1;rounded=0;entryX=0.5;entryY=1;entryDx=0;entryDy=0;exitX=0;exitY=0.5;exitDx=0;exitDy=0;" edge="1" parent="1" source="z82gJRCpisf7ENNNL1Ij-3" target="z82gJRCpisf7ENNNL1Ij-1">
          <mxGeometry width="50" height="50" relative="1" as="geometry">
            <mxPoint x="75" y="220" as="sourcePoint" />
            <mxPoint x="440" y="430" as="targetPoint" />
            <Array as="points">
              <mxPoint x="75" y="220" />
            </Array>
          </mxGeometry>
        </mxCell>
        <mxCell id="z82gJRCpisf7ENNNL1Ij-29" value="" style="endArrow=none;html=1;rounded=0;entryX=0.25;entryY=1;entryDx=0;entryDy=0;exitX=0;exitY=0.5;exitDx=0;exitDy=0;" edge="1" parent="1" source="z82gJRCpisf7ENNNL1Ij-4" target="z82gJRCpisf7ENNNL1Ij-3">
          <mxGeometry width="50" height="50" relative="1" as="geometry">
            <mxPoint x="390" y="480" as="sourcePoint" />
            <mxPoint x="440" y="430" as="targetPoint" />
            <Array as="points">
              <mxPoint x="140" y="420" />
            </Array>
          </mxGeometry>
        </mxCell>
        <mxCell id="z82gJRCpisf7ENNNL1Ij-32" value="" style="endArrow=none;html=1;rounded=0;entryX=0.5;entryY=1;entryDx=0;entryDy=0;exitX=0;exitY=0.5;exitDx=0;exitDy=0;" edge="1" parent="1" source="z82gJRCpisf7ENNNL1Ij-10" target="z82gJRCpisf7ENNNL1Ij-7">
          <mxGeometry width="50" height="50" relative="1" as="geometry">
            <mxPoint x="390" y="480" as="sourcePoint" />
            <mxPoint x="440" y="430" as="targetPoint" />
            <Array as="points">
              <mxPoint x="239" y="340" />
            </Array>
          </mxGeometry>
        </mxCell>
        <mxCell id="z82gJRCpisf7ENNNL1Ij-33" value="" style="endArrow=none;html=1;rounded=0;entryX=0.5;entryY=1;entryDx=0;entryDy=0;exitX=0;exitY=0.5;exitDx=0;exitDy=0;" edge="1" parent="1" source="z82gJRCpisf7ENNNL1Ij-12" target="z82gJRCpisf7ENNNL1Ij-4">
          <mxGeometry width="50" height="50" relative="1" as="geometry">
            <mxPoint x="390" y="480" as="sourcePoint" />
            <mxPoint x="440" y="430" as="targetPoint" />
            <Array as="points">
              <mxPoint x="240" y="480" />
            </Array>
          </mxGeometry>
        </mxCell>
        <mxCell id="z82gJRCpisf7ENNNL1Ij-34" value="" style="endArrow=none;html=1;rounded=0;entryX=0.5;entryY=1;entryDx=0;entryDy=0;exitX=0;exitY=0.5;exitDx=0;exitDy=0;" edge="1" parent="1" source="z82gJRCpisf7ENNNL1Ij-26" target="z82gJRCpisf7ENNNL1Ij-12">
          <mxGeometry width="50" height="50" relative="1" as="geometry">
            <mxPoint x="390" y="480" as="sourcePoint" />
            <mxPoint x="440" y="430" as="targetPoint" />
            <Array as="points">
              <mxPoint x="305" y="660" />
              <mxPoint x="305" y="540" />
            </Array>
          </mxGeometry>
        </mxCell>
        <mxCell id="z82gJRCpisf7ENNNL1Ij-36" value="" style="endArrow=none;html=1;rounded=0;entryX=0;entryY=0.5;entryDx=0;entryDy=0;" edge="1" parent="1" target="z82gJRCpisf7ENNNL1Ij-17">
          <mxGeometry width="50" height="50" relative="1" as="geometry">
            <mxPoint x="310" y="540" as="sourcePoint" />
            <mxPoint x="440" y="430" as="targetPoint" />
            <Array as="points" />
          </mxGeometry>
        </mxCell>
        <mxCell id="z82gJRCpisf7ENNNL1Ij-39" value="" style="endArrow=none;html=1;rounded=0;entryX=0;entryY=0.5;entryDx=0;entryDy=0;" edge="1" parent="1" target="z82gJRCpisf7ENNNL1Ij-21">
          <mxGeometry width="50" height="50" relative="1" as="geometry">
            <mxPoint x="310" y="600" as="sourcePoint" />
            <mxPoint x="440" y="430" as="targetPoint" />
          </mxGeometry>
        </mxCell>
        <mxCell id="z82gJRCpisf7ENNNL1Ij-40" value="" style="endArrow=none;html=1;rounded=0;entryX=0;entryY=0.5;entryDx=0;entryDy=0;" edge="1" parent="1" target="z82gJRCpisf7ENNNL1Ij-7">
          <mxGeometry width="50" height="50" relative="1" as="geometry">
            <mxPoint x="140" y="280" as="sourcePoint" />
            <mxPoint x="440" y="430" as="targetPoint" />
          </mxGeometry>
        </mxCell>
      </root>
    </mxGraphModel>
  </diagram>
</mxfile>
